<mxfile host="app.diagrams.net" agent="Mozilla/5.0 (Windows NT 10.0; Win64; x64) AppleWebKit/537.36 (KHTML, like Gecko) Chrome/129.0.0.0 Safari/537.36" version="24.7.17">
  <diagram name="Seite-1" id="4hVkLUTrtvRtAOiwKSZ2">
    <mxGraphModel dx="1062" dy="578" grid="1" gridSize="10" guides="1" tooltips="1" connect="1" arrows="1" fold="1" page="1" pageScale="1" pageWidth="827" pageHeight="1169" math="0" shadow="0">
      <root>
        <mxCell id="0" />
        <mxCell id="1" parent="0" />
        <mxCell id="9hvRfSDIdng7qgmBZlXO-1" value="&lt;b&gt;&lt;u&gt;&lt;font style=&quot;font-size: 14px;&quot;&gt;VCF Generator&lt;/font&gt;&lt;/u&gt;&lt;/b&gt;" style="rounded=0;whiteSpace=wrap;html=1;strokeWidth=3;" parent="1" vertex="1">
          <mxGeometry x="40" y="120" width="120" height="40" as="geometry" />
        </mxCell>
        <mxCell id="9hvRfSDIdng7qgmBZlXO-2" value="&lt;b&gt;&lt;u&gt;Planning Phase&lt;/u&gt;&lt;/b&gt;" style="rounded=0;whiteSpace=wrap;html=1;strokeWidth=3;" parent="1" vertex="1">
          <mxGeometry x="40" y="160" width="120" height="40" as="geometry" />
        </mxCell>
        <mxCell id="9hvRfSDIdng7qgmBZlXO-3" value="&lt;font style=&quot;font-size: 8px;&quot;&gt;Define Requirements&lt;/font&gt;" style="rounded=0;whiteSpace=wrap;html=1;strokeWidth=3;" parent="1" vertex="1">
          <mxGeometry x="40" y="200" width="120" height="40" as="geometry" />
        </mxCell>
        <mxCell id="9hvRfSDIdng7qgmBZlXO-4" value="&lt;font style=&quot;font-size: 8px;&quot;&gt;Create Project Timeline&lt;/font&gt;" style="rounded=0;whiteSpace=wrap;html=1;strokeWidth=3;" parent="1" vertex="1">
          <mxGeometry x="40" y="240" width="120" height="40" as="geometry" />
        </mxCell>
        <mxCell id="9hvRfSDIdng7qgmBZlXO-7" value="&lt;b&gt;Week 1&lt;/b&gt;&lt;div&gt;&lt;b&gt;23.9 - 29.9&lt;/b&gt;&lt;/div&gt;" style="rounded=0;whiteSpace=wrap;html=1;strokeWidth=3;" parent="1" vertex="1">
          <mxGeometry x="160" y="80" width="280" height="40" as="geometry" />
        </mxCell>
        <mxCell id="9hvRfSDIdng7qgmBZlXO-10" value="Mo" style="rounded=0;whiteSpace=wrap;html=1;" parent="1" vertex="1">
          <mxGeometry x="160" y="120" width="40" height="40" as="geometry" />
        </mxCell>
        <mxCell id="9hvRfSDIdng7qgmBZlXO-13" value="&lt;b&gt;Week 3&lt;/b&gt;&lt;div&gt;&lt;b&gt;07.10 - 13.10&lt;/b&gt;&lt;/div&gt;" style="rounded=0;whiteSpace=wrap;html=1;strokeWidth=3;" parent="1" vertex="1">
          <mxGeometry x="720" y="80" width="280" height="40" as="geometry" />
        </mxCell>
        <mxCell id="9hvRfSDIdng7qgmBZlXO-14" value="&lt;b&gt;Week 2&lt;/b&gt;&lt;div&gt;&lt;b&gt;30.09 - 06.10&lt;/b&gt;&lt;/div&gt;" style="rounded=0;whiteSpace=wrap;html=1;strokeWidth=3;" parent="1" vertex="1">
          <mxGeometry x="440" y="80" width="280" height="40" as="geometry" />
        </mxCell>
        <mxCell id="9hvRfSDIdng7qgmBZlXO-15" value="&lt;b&gt;Week 7&lt;/b&gt;&lt;div&gt;&lt;b&gt;04.11 - 10.11&lt;/b&gt;&lt;/div&gt;" style="rounded=0;whiteSpace=wrap;html=1;strokeWidth=3;" parent="1" vertex="1">
          <mxGeometry x="1839" y="80" width="280" height="40" as="geometry" />
        </mxCell>
        <mxCell id="9hvRfSDIdng7qgmBZlXO-16" value="&lt;b&gt;Week 6&lt;/b&gt;&lt;div&gt;&lt;b&gt;28.10 - 03.11&lt;/b&gt;&lt;/div&gt;" style="rounded=0;whiteSpace=wrap;html=1;strokeWidth=3;" parent="1" vertex="1">
          <mxGeometry x="1560" y="80" width="280" height="40" as="geometry" />
        </mxCell>
        <mxCell id="9hvRfSDIdng7qgmBZlXO-17" value="&lt;b&gt;Week 4&lt;/b&gt;&lt;div&gt;&lt;b&gt;14.10 - 20.10&lt;/b&gt;&lt;/div&gt;" style="rounded=0;whiteSpace=wrap;html=1;strokeWidth=3;" parent="1" vertex="1">
          <mxGeometry x="1000" y="80" width="280" height="40" as="geometry" />
        </mxCell>
        <mxCell id="9hvRfSDIdng7qgmBZlXO-18" value="&lt;b&gt;Week 5&lt;/b&gt;&lt;div&gt;&lt;b&gt;21.10 - 27.10&lt;/b&gt;&lt;/div&gt;" style="rounded=0;whiteSpace=wrap;html=1;strokeWidth=3;" parent="1" vertex="1">
          <mxGeometry x="1280" y="80" width="280" height="40" as="geometry" />
        </mxCell>
        <mxCell id="9hvRfSDIdng7qgmBZlXO-19" value="Tu" style="rounded=0;whiteSpace=wrap;html=1;" parent="1" vertex="1">
          <mxGeometry x="200" y="120" width="40" height="40" as="geometry" />
        </mxCell>
        <mxCell id="9hvRfSDIdng7qgmBZlXO-20" value="Fr" style="rounded=0;whiteSpace=wrap;html=1;" parent="1" vertex="1">
          <mxGeometry x="320" y="120" width="40" height="40" as="geometry" />
        </mxCell>
        <mxCell id="9hvRfSDIdng7qgmBZlXO-21" value="Mo" style="rounded=0;whiteSpace=wrap;html=1;" parent="1" vertex="1">
          <mxGeometry x="440" y="120" width="40" height="40" as="geometry" />
        </mxCell>
        <mxCell id="9hvRfSDIdng7qgmBZlXO-22" value="&lt;span style=&quot;color: rgb(0, 0, 0); font-family: Helvetica; font-size: 12px; font-style: normal; font-variant-ligatures: normal; font-variant-caps: normal; font-weight: 400; letter-spacing: normal; orphans: 2; text-align: center; text-indent: 0px; text-transform: none; widows: 2; word-spacing: 0px; -webkit-text-stroke-width: 0px; white-space: normal; background-color: rgb(251, 251, 251); text-decoration-thickness: initial; text-decoration-style: initial; text-decoration-color: initial; display: inline !important; float: none;&quot;&gt;Tu&lt;/span&gt;" style="rounded=0;whiteSpace=wrap;html=1;" parent="1" vertex="1">
          <mxGeometry x="480" y="120" width="40" height="40" as="geometry" />
        </mxCell>
        <mxCell id="9hvRfSDIdng7qgmBZlXO-23" value="We" style="rounded=0;whiteSpace=wrap;html=1;" parent="1" vertex="1">
          <mxGeometry x="520" y="120" width="40" height="40" as="geometry" />
        </mxCell>
        <mxCell id="9hvRfSDIdng7qgmBZlXO-24" value="Tu" style="rounded=0;whiteSpace=wrap;html=1;" parent="1" vertex="1">
          <mxGeometry x="560" y="120" width="40" height="40" as="geometry" />
        </mxCell>
        <mxCell id="9hvRfSDIdng7qgmBZlXO-25" value="Fr" style="rounded=0;whiteSpace=wrap;html=1;" parent="1" vertex="1">
          <mxGeometry x="600" y="120" width="40" height="40" as="geometry" />
        </mxCell>
        <mxCell id="9hvRfSDIdng7qgmBZlXO-26" value="&lt;span style=&quot;color: rgb(0, 0, 0); font-family: Helvetica; font-size: 12px; font-style: normal; font-variant-ligatures: normal; font-variant-caps: normal; font-weight: 400; letter-spacing: normal; orphans: 2; text-align: center; text-indent: 0px; text-transform: none; widows: 2; word-spacing: 0px; -webkit-text-stroke-width: 0px; white-space: normal; background-color: rgb(251, 251, 251); text-decoration-thickness: initial; text-decoration-style: initial; text-decoration-color: initial; display: inline !important; float: none;&quot;&gt;Sa&lt;/span&gt;" style="rounded=0;whiteSpace=wrap;html=1;" parent="1" vertex="1">
          <mxGeometry x="640" y="120" width="40" height="40" as="geometry" />
        </mxCell>
        <mxCell id="9hvRfSDIdng7qgmBZlXO-27" value="&lt;span style=&quot;color: rgb(0, 0, 0); font-family: Helvetica; font-size: 12px; font-style: normal; font-variant-ligatures: normal; font-variant-caps: normal; font-weight: 400; letter-spacing: normal; orphans: 2; text-align: center; text-indent: 0px; text-transform: none; widows: 2; word-spacing: 0px; -webkit-text-stroke-width: 0px; white-space: normal; background-color: rgb(251, 251, 251); text-decoration-thickness: initial; text-decoration-style: initial; text-decoration-color: initial; display: inline !important; float: none;&quot;&gt;Su&lt;/span&gt;" style="rounded=0;whiteSpace=wrap;html=1;" parent="1" vertex="1">
          <mxGeometry x="680" y="120" width="40" height="40" as="geometry" />
        </mxCell>
        <mxCell id="9hvRfSDIdng7qgmBZlXO-28" value="Mo" style="rounded=0;whiteSpace=wrap;html=1;" parent="1" vertex="1">
          <mxGeometry x="720" y="120" width="40" height="40" as="geometry" />
        </mxCell>
        <mxCell id="9hvRfSDIdng7qgmBZlXO-29" value="We" style="rounded=0;whiteSpace=wrap;html=1;" parent="1" vertex="1">
          <mxGeometry x="800" y="120" width="40" height="40" as="geometry" />
        </mxCell>
        <mxCell id="9hvRfSDIdng7qgmBZlXO-30" value="Tu" style="rounded=0;whiteSpace=wrap;html=1;" parent="1" vertex="1">
          <mxGeometry x="760" y="120" width="40" height="40" as="geometry" />
        </mxCell>
        <mxCell id="9hvRfSDIdng7qgmBZlXO-31" value="Tu" style="rounded=0;whiteSpace=wrap;html=1;" parent="1" vertex="1">
          <mxGeometry x="840" y="120" width="40" height="40" as="geometry" />
        </mxCell>
        <mxCell id="9hvRfSDIdng7qgmBZlXO-32" value="Fr" style="rounded=0;whiteSpace=wrap;html=1;" parent="1" vertex="1">
          <mxGeometry x="880" y="120" width="40" height="40" as="geometry" />
        </mxCell>
        <mxCell id="9hvRfSDIdng7qgmBZlXO-33" value="Sa" style="rounded=0;whiteSpace=wrap;html=1;" parent="1" vertex="1">
          <mxGeometry x="920" y="120" width="40" height="40" as="geometry" />
        </mxCell>
        <mxCell id="9hvRfSDIdng7qgmBZlXO-34" value="Su" style="rounded=0;whiteSpace=wrap;html=1;" parent="1" vertex="1">
          <mxGeometry x="960" y="120" width="40" height="40" as="geometry" />
        </mxCell>
        <mxCell id="9hvRfSDIdng7qgmBZlXO-52" value="Th" style="rounded=0;whiteSpace=wrap;html=1;" parent="1" vertex="1">
          <mxGeometry x="280" y="120" width="40" height="40" as="geometry" />
        </mxCell>
        <mxCell id="9hvRfSDIdng7qgmBZlXO-53" value="We" style="rounded=0;whiteSpace=wrap;html=1;" parent="1" vertex="1">
          <mxGeometry x="240" y="120" width="40" height="40" as="geometry" />
        </mxCell>
        <mxCell id="9hvRfSDIdng7qgmBZlXO-54" value="Sa" style="rounded=0;whiteSpace=wrap;html=1;" parent="1" vertex="1">
          <mxGeometry x="360" y="120" width="40" height="40" as="geometry" />
        </mxCell>
        <mxCell id="9hvRfSDIdng7qgmBZlXO-55" value="Su" style="rounded=0;whiteSpace=wrap;html=1;" parent="1" vertex="1">
          <mxGeometry x="400" y="120" width="40" height="40" as="geometry" />
        </mxCell>
        <mxCell id="9hvRfSDIdng7qgmBZlXO-73" value="Th" style="rounded=0;whiteSpace=wrap;html=1;" parent="1" vertex="1">
          <mxGeometry x="1400" y="120" width="40" height="40" as="geometry" />
        </mxCell>
        <mxCell id="9hvRfSDIdng7qgmBZlXO-74" value="Su" style="rounded=0;whiteSpace=wrap;html=1;" parent="1" vertex="1">
          <mxGeometry x="1520" y="120" width="40" height="40" as="geometry" />
        </mxCell>
        <mxCell id="9hvRfSDIdng7qgmBZlXO-75" value="Mo" style="rounded=0;whiteSpace=wrap;html=1;" parent="1" vertex="1">
          <mxGeometry x="1560" y="120" width="40" height="40" as="geometry" />
        </mxCell>
        <mxCell id="9hvRfSDIdng7qgmBZlXO-76" value="Tu" style="rounded=0;whiteSpace=wrap;html=1;" parent="1" vertex="1">
          <mxGeometry x="1600" y="120" width="40" height="40" as="geometry" />
        </mxCell>
        <mxCell id="9hvRfSDIdng7qgmBZlXO-77" value="We" style="rounded=0;whiteSpace=wrap;html=1;" parent="1" vertex="1">
          <mxGeometry x="1640" y="120" width="40" height="40" as="geometry" />
        </mxCell>
        <mxCell id="9hvRfSDIdng7qgmBZlXO-78" value="Th" style="rounded=0;whiteSpace=wrap;html=1;" parent="1" vertex="1">
          <mxGeometry x="1680" y="120" width="40" height="40" as="geometry" />
        </mxCell>
        <mxCell id="9hvRfSDIdng7qgmBZlXO-79" value="&lt;span style=&quot;color: rgb(0, 0, 0); font-family: Helvetica; font-size: 12px; font-style: normal; font-variant-ligatures: normal; font-variant-caps: normal; font-weight: 400; letter-spacing: normal; orphans: 2; text-align: center; text-indent: 0px; text-transform: none; widows: 2; word-spacing: 0px; -webkit-text-stroke-width: 0px; white-space: normal; background-color: rgb(251, 251, 251); text-decoration-thickness: initial; text-decoration-style: initial; text-decoration-color: initial; display: inline !important; float: none;&quot;&gt;Fr&lt;/span&gt;" style="rounded=0;whiteSpace=wrap;html=1;" parent="1" vertex="1">
          <mxGeometry x="1719" y="120" width="40" height="40" as="geometry" />
        </mxCell>
        <mxCell id="9hvRfSDIdng7qgmBZlXO-80" value="Sa" style="rounded=0;whiteSpace=wrap;html=1;" parent="1" vertex="1">
          <mxGeometry x="1759" y="120" width="40" height="40" as="geometry" />
        </mxCell>
        <mxCell id="9hvRfSDIdng7qgmBZlXO-81" value="Su" style="rounded=0;whiteSpace=wrap;html=1;" parent="1" vertex="1">
          <mxGeometry x="1799" y="120" width="40" height="40" as="geometry" />
        </mxCell>
        <mxCell id="9hvRfSDIdng7qgmBZlXO-82" value="Mo" style="rounded=0;whiteSpace=wrap;html=1;" parent="1" vertex="1">
          <mxGeometry x="1840" y="120" width="40" height="40" as="geometry" />
        </mxCell>
        <mxCell id="9hvRfSDIdng7qgmBZlXO-83" value="Tu" style="rounded=0;whiteSpace=wrap;html=1;" parent="1" vertex="1">
          <mxGeometry x="1879" y="120" width="40" height="40" as="geometry" />
        </mxCell>
        <mxCell id="9hvRfSDIdng7qgmBZlXO-84" value="We" style="rounded=0;whiteSpace=wrap;html=1;" parent="1" vertex="1">
          <mxGeometry x="1919" y="120" width="40" height="40" as="geometry" />
        </mxCell>
        <mxCell id="9hvRfSDIdng7qgmBZlXO-85" value="Th" style="rounded=0;whiteSpace=wrap;html=1;" parent="1" vertex="1">
          <mxGeometry x="1959" y="120" width="40" height="40" as="geometry" />
        </mxCell>
        <mxCell id="9hvRfSDIdng7qgmBZlXO-86" value="Fr" style="rounded=0;whiteSpace=wrap;html=1;" parent="1" vertex="1">
          <mxGeometry x="1999" y="120" width="40" height="40" as="geometry" />
        </mxCell>
        <mxCell id="9hvRfSDIdng7qgmBZlXO-87" value="Sa" style="rounded=0;whiteSpace=wrap;html=1;" parent="1" vertex="1">
          <mxGeometry x="2039" y="120" width="40" height="40" as="geometry" />
        </mxCell>
        <mxCell id="9hvRfSDIdng7qgmBZlXO-88" value="Su" style="rounded=0;whiteSpace=wrap;html=1;" parent="1" vertex="1">
          <mxGeometry x="2079" y="120" width="40" height="40" as="geometry" />
        </mxCell>
        <mxCell id="9hvRfSDIdng7qgmBZlXO-89" value="Mo" style="rounded=0;whiteSpace=wrap;html=1;" parent="1" vertex="1">
          <mxGeometry x="1000" y="120" width="40" height="40" as="geometry" />
        </mxCell>
        <mxCell id="9hvRfSDIdng7qgmBZlXO-90" value="We" style="rounded=0;whiteSpace=wrap;html=1;" parent="1" vertex="1">
          <mxGeometry x="1360" y="120" width="40" height="40" as="geometry" />
        </mxCell>
        <mxCell id="9hvRfSDIdng7qgmBZlXO-91" value="Tu" style="rounded=0;whiteSpace=wrap;html=1;" parent="1" vertex="1">
          <mxGeometry x="1320" y="120" width="40" height="40" as="geometry" />
        </mxCell>
        <mxCell id="9hvRfSDIdng7qgmBZlXO-92" value="Mo" style="rounded=0;whiteSpace=wrap;html=1;" parent="1" vertex="1">
          <mxGeometry x="1280" y="120" width="40" height="40" as="geometry" />
        </mxCell>
        <mxCell id="9hvRfSDIdng7qgmBZlXO-93" value="Su" style="rounded=0;whiteSpace=wrap;html=1;" parent="1" vertex="1">
          <mxGeometry x="1240" y="120" width="40" height="40" as="geometry" />
        </mxCell>
        <mxCell id="9hvRfSDIdng7qgmBZlXO-94" value="Sa" style="rounded=0;whiteSpace=wrap;html=1;" parent="1" vertex="1">
          <mxGeometry x="1200" y="120" width="40" height="40" as="geometry" />
        </mxCell>
        <mxCell id="9hvRfSDIdng7qgmBZlXO-95" value="Fr" style="rounded=0;whiteSpace=wrap;html=1;" parent="1" vertex="1">
          <mxGeometry x="1160" y="120" width="40" height="40" as="geometry" />
        </mxCell>
        <mxCell id="9hvRfSDIdng7qgmBZlXO-96" value="Tu" style="rounded=0;whiteSpace=wrap;html=1;" parent="1" vertex="1">
          <mxGeometry x="1120" y="120" width="40" height="40" as="geometry" />
        </mxCell>
        <mxCell id="9hvRfSDIdng7qgmBZlXO-97" value="We" style="rounded=0;whiteSpace=wrap;html=1;" parent="1" vertex="1">
          <mxGeometry x="1080" y="120" width="40" height="40" as="geometry" />
        </mxCell>
        <mxCell id="9hvRfSDIdng7qgmBZlXO-98" value="Tu" style="rounded=0;whiteSpace=wrap;html=1;" parent="1" vertex="1">
          <mxGeometry x="1040" y="120" width="40" height="40" as="geometry" />
        </mxCell>
        <mxCell id="9hvRfSDIdng7qgmBZlXO-99" value="Fr" style="rounded=0;whiteSpace=wrap;html=1;" parent="1" vertex="1">
          <mxGeometry x="1440" y="120" width="40" height="40" as="geometry" />
        </mxCell>
        <mxCell id="9hvRfSDIdng7qgmBZlXO-100" value="Sa" style="rounded=0;whiteSpace=wrap;html=1;" parent="1" vertex="1">
          <mxGeometry x="1480" y="120" width="40" height="40" as="geometry" />
        </mxCell>
        <mxCell id="9hvRfSDIdng7qgmBZlXO-101" value="" style="endArrow=none;html=1;rounded=0;entryX=0;entryY=1;entryDx=0;entryDy=0;" parent="1" target="9hvRfSDIdng7qgmBZlXO-19" edge="1">
          <mxGeometry width="50" height="50" relative="1" as="geometry">
            <mxPoint x="200" y="920" as="sourcePoint" />
            <mxPoint x="280" y="260" as="targetPoint" />
          </mxGeometry>
        </mxCell>
        <mxCell id="9hvRfSDIdng7qgmBZlXO-102" value="" style="endArrow=none;html=1;rounded=0;entryX=0;entryY=1;entryDx=0;entryDy=0;" parent="1" edge="1">
          <mxGeometry width="50" height="50" relative="1" as="geometry">
            <mxPoint x="640" y="920" as="sourcePoint" />
            <mxPoint x="640" y="160" as="targetPoint" />
          </mxGeometry>
        </mxCell>
        <mxCell id="9hvRfSDIdng7qgmBZlXO-103" value="" style="endArrow=none;html=1;rounded=0;entryX=0;entryY=1;entryDx=0;entryDy=0;" parent="1" edge="1">
          <mxGeometry width="50" height="50" relative="1" as="geometry">
            <mxPoint x="240" y="920" as="sourcePoint" />
            <mxPoint x="239.17000000000002" y="160" as="targetPoint" />
          </mxGeometry>
        </mxCell>
        <mxCell id="9hvRfSDIdng7qgmBZlXO-104" value="" style="endArrow=none;html=1;rounded=0;entryX=0;entryY=1;entryDx=0;entryDy=0;" parent="1" edge="1">
          <mxGeometry width="50" height="50" relative="1" as="geometry">
            <mxPoint x="600" y="920" as="sourcePoint" />
            <mxPoint x="600" y="160" as="targetPoint" />
          </mxGeometry>
        </mxCell>
        <mxCell id="9hvRfSDIdng7qgmBZlXO-105" value="" style="endArrow=none;html=1;rounded=0;entryX=0;entryY=1;entryDx=0;entryDy=0;" parent="1" edge="1">
          <mxGeometry width="50" height="50" relative="1" as="geometry">
            <mxPoint x="560" y="920" as="sourcePoint" />
            <mxPoint x="560" y="160" as="targetPoint" />
          </mxGeometry>
        </mxCell>
        <mxCell id="9hvRfSDIdng7qgmBZlXO-106" value="" style="endArrow=none;html=1;rounded=0;entryX=0;entryY=1;entryDx=0;entryDy=0;" parent="1" edge="1">
          <mxGeometry width="50" height="50" relative="1" as="geometry">
            <mxPoint x="520" y="920" as="sourcePoint" />
            <mxPoint x="520" y="160" as="targetPoint" />
          </mxGeometry>
        </mxCell>
        <mxCell id="9hvRfSDIdng7qgmBZlXO-107" value="" style="endArrow=none;html=1;rounded=0;entryX=0;entryY=1;entryDx=0;entryDy=0;" parent="1" edge="1">
          <mxGeometry width="50" height="50" relative="1" as="geometry">
            <mxPoint x="280" y="920" as="sourcePoint" />
            <mxPoint x="280" y="160" as="targetPoint" />
          </mxGeometry>
        </mxCell>
        <mxCell id="9hvRfSDIdng7qgmBZlXO-108" value="" style="endArrow=none;html=1;rounded=0;entryX=0;entryY=1;entryDx=0;entryDy=0;" parent="1" edge="1">
          <mxGeometry width="50" height="50" relative="1" as="geometry">
            <mxPoint x="320" y="920" as="sourcePoint" />
            <mxPoint x="320" y="160" as="targetPoint" />
          </mxGeometry>
        </mxCell>
        <mxCell id="9hvRfSDIdng7qgmBZlXO-109" value="" style="endArrow=none;html=1;rounded=0;entryX=0;entryY=1;entryDx=0;entryDy=0;" parent="1" edge="1">
          <mxGeometry width="50" height="50" relative="1" as="geometry">
            <mxPoint x="360" y="920" as="sourcePoint" />
            <mxPoint x="360" y="160" as="targetPoint" />
          </mxGeometry>
        </mxCell>
        <mxCell id="9hvRfSDIdng7qgmBZlXO-110" value="" style="endArrow=none;html=1;rounded=0;entryX=0;entryY=1;entryDx=0;entryDy=0;" parent="1" edge="1">
          <mxGeometry width="50" height="50" relative="1" as="geometry">
            <mxPoint x="400" y="920" as="sourcePoint" />
            <mxPoint x="400" y="160" as="targetPoint" />
          </mxGeometry>
        </mxCell>
        <mxCell id="9hvRfSDIdng7qgmBZlXO-111" value="" style="endArrow=none;html=1;rounded=0;entryX=0;entryY=0;entryDx=0;entryDy=0;strokeWidth=3;" parent="1" target="9hvRfSDIdng7qgmBZlXO-14" edge="1">
          <mxGeometry width="50" height="50" relative="1" as="geometry">
            <mxPoint x="439.16999999999996" y="400" as="sourcePoint" />
            <mxPoint x="439.16999999999996" y="160" as="targetPoint" />
          </mxGeometry>
        </mxCell>
        <mxCell id="9hvRfSDIdng7qgmBZlXO-112" value="" style="endArrow=none;html=1;rounded=0;entryX=0;entryY=1;entryDx=0;entryDy=0;" parent="1" edge="1">
          <mxGeometry width="50" height="50" relative="1" as="geometry">
            <mxPoint x="480" y="920" as="sourcePoint" />
            <mxPoint x="480" y="160" as="targetPoint" />
          </mxGeometry>
        </mxCell>
        <mxCell id="9hvRfSDIdng7qgmBZlXO-113" value="" style="endArrow=none;html=1;rounded=0;entryX=0;entryY=1;entryDx=0;entryDy=0;" parent="1" edge="1">
          <mxGeometry width="50" height="50" relative="1" as="geometry">
            <mxPoint x="1040" y="920" as="sourcePoint" />
            <mxPoint x="1040" y="160" as="targetPoint" />
          </mxGeometry>
        </mxCell>
        <mxCell id="9hvRfSDIdng7qgmBZlXO-114" value="" style="endArrow=none;html=1;rounded=0;entryX=0;entryY=1;entryDx=0;entryDy=0;" parent="1" edge="1">
          <mxGeometry width="50" height="50" relative="1" as="geometry">
            <mxPoint x="680" y="920" as="sourcePoint" />
            <mxPoint x="680" y="160" as="targetPoint" />
          </mxGeometry>
        </mxCell>
        <mxCell id="9hvRfSDIdng7qgmBZlXO-115" value="" style="endArrow=none;html=1;rounded=0;entryX=1;entryY=0;entryDx=0;entryDy=0;strokeWidth=3;" parent="1" target="9hvRfSDIdng7qgmBZlXO-14" edge="1">
          <mxGeometry width="50" height="50" relative="1" as="geometry">
            <mxPoint x="720" y="920" as="sourcePoint" />
            <mxPoint x="720" y="160" as="targetPoint" />
          </mxGeometry>
        </mxCell>
        <mxCell id="9hvRfSDIdng7qgmBZlXO-116" value="" style="endArrow=none;html=1;rounded=0;entryX=0;entryY=1;entryDx=0;entryDy=0;" parent="1" edge="1">
          <mxGeometry width="50" height="50" relative="1" as="geometry">
            <mxPoint x="760" y="920" as="sourcePoint" />
            <mxPoint x="760" y="160" as="targetPoint" />
          </mxGeometry>
        </mxCell>
        <mxCell id="9hvRfSDIdng7qgmBZlXO-117" value="" style="endArrow=none;html=1;rounded=0;entryX=0;entryY=1;entryDx=0;entryDy=0;" parent="1" edge="1">
          <mxGeometry width="50" height="50" relative="1" as="geometry">
            <mxPoint x="800" y="920" as="sourcePoint" />
            <mxPoint x="799.17" y="160" as="targetPoint" />
          </mxGeometry>
        </mxCell>
        <mxCell id="9hvRfSDIdng7qgmBZlXO-118" value="" style="endArrow=none;html=1;rounded=0;entryX=0;entryY=1;entryDx=0;entryDy=0;" parent="1" edge="1">
          <mxGeometry width="50" height="50" relative="1" as="geometry">
            <mxPoint x="840" y="920" as="sourcePoint" />
            <mxPoint x="840" y="160" as="targetPoint" />
          </mxGeometry>
        </mxCell>
        <mxCell id="9hvRfSDIdng7qgmBZlXO-119" value="" style="endArrow=none;html=1;rounded=0;entryX=0;entryY=1;entryDx=0;entryDy=0;" parent="1" edge="1">
          <mxGeometry width="50" height="50" relative="1" as="geometry">
            <mxPoint x="879" y="920" as="sourcePoint" />
            <mxPoint x="879.17" y="160" as="targetPoint" />
          </mxGeometry>
        </mxCell>
        <mxCell id="9hvRfSDIdng7qgmBZlXO-120" value="" style="endArrow=none;html=1;rounded=0;entryX=0;entryY=1;entryDx=0;entryDy=0;" parent="1" edge="1">
          <mxGeometry width="50" height="50" relative="1" as="geometry">
            <mxPoint x="920" y="920" as="sourcePoint" />
            <mxPoint x="920" y="160" as="targetPoint" />
          </mxGeometry>
        </mxCell>
        <mxCell id="9hvRfSDIdng7qgmBZlXO-121" value="" style="endArrow=none;html=1;rounded=0;entryX=0;entryY=1;entryDx=0;entryDy=0;" parent="1" edge="1">
          <mxGeometry width="50" height="50" relative="1" as="geometry">
            <mxPoint x="960" y="920" as="sourcePoint" />
            <mxPoint x="960" y="160" as="targetPoint" />
          </mxGeometry>
        </mxCell>
        <mxCell id="9hvRfSDIdng7qgmBZlXO-122" value="" style="endArrow=none;html=1;rounded=0;entryX=0;entryY=0;entryDx=0;entryDy=0;strokeWidth=3;" parent="1" target="9hvRfSDIdng7qgmBZlXO-17" edge="1">
          <mxGeometry width="50" height="50" relative="1" as="geometry">
            <mxPoint x="1000" y="920" as="sourcePoint" />
            <mxPoint x="1000" y="160" as="targetPoint" />
          </mxGeometry>
        </mxCell>
        <mxCell id="9hvRfSDIdng7qgmBZlXO-123" value="" style="endArrow=none;html=1;rounded=0;entryX=0;entryY=1;entryDx=0;entryDy=0;" parent="1" edge="1">
          <mxGeometry width="50" height="50" relative="1" as="geometry">
            <mxPoint x="1319" y="920" as="sourcePoint" />
            <mxPoint x="1319.1699999999998" y="160" as="targetPoint" />
          </mxGeometry>
        </mxCell>
        <mxCell id="9hvRfSDIdng7qgmBZlXO-125" value="" style="endArrow=none;html=1;rounded=0;entryX=0;entryY=1;entryDx=0;entryDy=0;" parent="1" edge="1">
          <mxGeometry width="50" height="50" relative="1" as="geometry">
            <mxPoint x="1720" y="920" as="sourcePoint" />
            <mxPoint x="1720" y="160" as="targetPoint" />
          </mxGeometry>
        </mxCell>
        <mxCell id="9hvRfSDIdng7qgmBZlXO-126" value="" style="endArrow=none;html=1;rounded=0;entryX=0;entryY=1;entryDx=0;entryDy=0;" parent="1" edge="1">
          <mxGeometry width="50" height="50" relative="1" as="geometry">
            <mxPoint x="1759" y="920" as="sourcePoint" />
            <mxPoint x="1759" y="160" as="targetPoint" />
          </mxGeometry>
        </mxCell>
        <mxCell id="9hvRfSDIdng7qgmBZlXO-127" value="" style="endArrow=none;html=1;rounded=0;entryX=0;entryY=1;entryDx=0;entryDy=0;" parent="1" edge="1">
          <mxGeometry width="50" height="50" relative="1" as="geometry">
            <mxPoint x="1799" y="920" as="sourcePoint" />
            <mxPoint x="1799" y="160" as="targetPoint" />
          </mxGeometry>
        </mxCell>
        <mxCell id="9hvRfSDIdng7qgmBZlXO-128" value="" style="endArrow=none;html=1;rounded=0;entryX=1;entryY=0;entryDx=0;entryDy=0;strokeWidth=3;" parent="1" target="9hvRfSDIdng7qgmBZlXO-16" edge="1">
          <mxGeometry width="50" height="50" relative="1" as="geometry">
            <mxPoint x="1840" y="920" as="sourcePoint" />
            <mxPoint x="1839.17" y="160" as="targetPoint" />
          </mxGeometry>
        </mxCell>
        <mxCell id="9hvRfSDIdng7qgmBZlXO-129" value="" style="endArrow=none;html=1;rounded=0;entryX=0;entryY=1;entryDx=0;entryDy=0;" parent="1" edge="1">
          <mxGeometry width="50" height="50" relative="1" as="geometry">
            <mxPoint x="1880" y="920" as="sourcePoint" />
            <mxPoint x="1880" y="160" as="targetPoint" />
          </mxGeometry>
        </mxCell>
        <mxCell id="9hvRfSDIdng7qgmBZlXO-130" value="" style="endArrow=none;html=1;rounded=0;entryX=0;entryY=1;entryDx=0;entryDy=0;" parent="1" edge="1">
          <mxGeometry width="50" height="50" relative="1" as="geometry">
            <mxPoint x="1920" y="920" as="sourcePoint" />
            <mxPoint x="1919" y="160" as="targetPoint" />
          </mxGeometry>
        </mxCell>
        <mxCell id="9hvRfSDIdng7qgmBZlXO-131" value="" style="endArrow=none;html=1;rounded=0;entryX=0;entryY=1;entryDx=0;entryDy=0;" parent="1" edge="1">
          <mxGeometry width="50" height="50" relative="1" as="geometry">
            <mxPoint x="1959" y="920" as="sourcePoint" />
            <mxPoint x="1959" y="160" as="targetPoint" />
          </mxGeometry>
        </mxCell>
        <mxCell id="9hvRfSDIdng7qgmBZlXO-132" value="" style="endArrow=none;html=1;rounded=0;entryX=0;entryY=1;entryDx=0;entryDy=0;" parent="1" edge="1">
          <mxGeometry width="50" height="50" relative="1" as="geometry">
            <mxPoint x="1999" y="920" as="sourcePoint" />
            <mxPoint x="1999" y="160" as="targetPoint" />
          </mxGeometry>
        </mxCell>
        <mxCell id="9hvRfSDIdng7qgmBZlXO-133" value="" style="endArrow=none;html=1;rounded=0;entryX=0;entryY=1;entryDx=0;entryDy=0;" parent="1" edge="1">
          <mxGeometry width="50" height="50" relative="1" as="geometry">
            <mxPoint x="2039" y="920" as="sourcePoint" />
            <mxPoint x="2039" y="160" as="targetPoint" />
          </mxGeometry>
        </mxCell>
        <mxCell id="9hvRfSDIdng7qgmBZlXO-134" value="" style="endArrow=none;html=1;rounded=0;entryX=0;entryY=1;entryDx=0;entryDy=0;" parent="1" edge="1">
          <mxGeometry width="50" height="50" relative="1" as="geometry">
            <mxPoint x="2079" y="920" as="sourcePoint" />
            <mxPoint x="2079" y="160" as="targetPoint" />
          </mxGeometry>
        </mxCell>
        <mxCell id="9hvRfSDIdng7qgmBZlXO-135" value="" style="endArrow=none;html=1;rounded=0;entryX=1;entryY=0;entryDx=0;entryDy=0;strokeWidth=3;" parent="1" target="9hvRfSDIdng7qgmBZlXO-15" edge="1">
          <mxGeometry width="50" height="50" relative="1" as="geometry">
            <mxPoint x="2119" y="920" as="sourcePoint" />
            <mxPoint x="2119" y="160" as="targetPoint" />
          </mxGeometry>
        </mxCell>
        <mxCell id="9hvRfSDIdng7qgmBZlXO-136" value="" style="endArrow=none;html=1;rounded=0;entryX=0;entryY=1;entryDx=0;entryDy=0;" parent="1" edge="1">
          <mxGeometry width="50" height="50" relative="1" as="geometry">
            <mxPoint x="1360" y="920" as="sourcePoint" />
            <mxPoint x="1360" y="160" as="targetPoint" />
          </mxGeometry>
        </mxCell>
        <mxCell id="9hvRfSDIdng7qgmBZlXO-137" value="" style="endArrow=none;html=1;rounded=0;entryX=0;entryY=1;entryDx=0;entryDy=0;" parent="1" edge="1">
          <mxGeometry width="50" height="50" relative="1" as="geometry">
            <mxPoint x="1400" y="920" as="sourcePoint" />
            <mxPoint x="1400" y="160" as="targetPoint" />
          </mxGeometry>
        </mxCell>
        <mxCell id="9hvRfSDIdng7qgmBZlXO-138" value="" style="endArrow=none;html=1;rounded=0;entryX=0;entryY=1;entryDx=0;entryDy=0;" parent="1" edge="1">
          <mxGeometry width="50" height="50" relative="1" as="geometry">
            <mxPoint x="1439" y="920" as="sourcePoint" />
            <mxPoint x="1439.1699999999998" y="160" as="targetPoint" />
          </mxGeometry>
        </mxCell>
        <mxCell id="9hvRfSDIdng7qgmBZlXO-139" value="" style="endArrow=none;html=1;rounded=0;entryX=0;entryY=1;entryDx=0;entryDy=0;" parent="1" edge="1">
          <mxGeometry width="50" height="50" relative="1" as="geometry">
            <mxPoint x="1480" y="920" as="sourcePoint" />
            <mxPoint x="1480" y="160" as="targetPoint" />
          </mxGeometry>
        </mxCell>
        <mxCell id="9hvRfSDIdng7qgmBZlXO-140" value="" style="endArrow=none;html=1;rounded=0;entryX=0;entryY=1;entryDx=0;entryDy=0;" parent="1" edge="1">
          <mxGeometry width="50" height="50" relative="1" as="geometry">
            <mxPoint x="1519" y="920" as="sourcePoint" />
            <mxPoint x="1519.1699999999998" y="160" as="targetPoint" />
          </mxGeometry>
        </mxCell>
        <mxCell id="9hvRfSDIdng7qgmBZlXO-141" value="" style="endArrow=none;html=1;rounded=0;entryX=1;entryY=0;entryDx=0;entryDy=0;strokeWidth=3;" parent="1" target="9hvRfSDIdng7qgmBZlXO-18" edge="1">
          <mxGeometry width="50" height="50" relative="1" as="geometry">
            <mxPoint x="1560" y="920" as="sourcePoint" />
            <mxPoint x="1560" y="160" as="targetPoint" />
          </mxGeometry>
        </mxCell>
        <mxCell id="9hvRfSDIdng7qgmBZlXO-142" value="" style="endArrow=none;html=1;rounded=0;entryX=0;entryY=1;entryDx=0;entryDy=0;" parent="1" edge="1">
          <mxGeometry width="50" height="50" relative="1" as="geometry">
            <mxPoint x="1600" y="920" as="sourcePoint" />
            <mxPoint x="1600" y="160" as="targetPoint" />
          </mxGeometry>
        </mxCell>
        <mxCell id="9hvRfSDIdng7qgmBZlXO-143" value="" style="endArrow=none;html=1;rounded=0;entryX=0;entryY=1;entryDx=0;entryDy=0;" parent="1" edge="1">
          <mxGeometry width="50" height="50" relative="1" as="geometry">
            <mxPoint x="1640" y="920" as="sourcePoint" />
            <mxPoint x="1640" y="160" as="targetPoint" />
          </mxGeometry>
        </mxCell>
        <mxCell id="9hvRfSDIdng7qgmBZlXO-144" value="" style="endArrow=none;html=1;rounded=0;entryX=0;entryY=1;entryDx=0;entryDy=0;" parent="1" edge="1">
          <mxGeometry width="50" height="50" relative="1" as="geometry">
            <mxPoint x="1680" y="920" as="sourcePoint" />
            <mxPoint x="1679.17" y="160" as="targetPoint" />
          </mxGeometry>
        </mxCell>
        <mxCell id="9hvRfSDIdng7qgmBZlXO-145" value="" style="endArrow=none;html=1;rounded=0;entryX=0;entryY=1;entryDx=0;entryDy=0;" parent="1" edge="1">
          <mxGeometry width="50" height="50" relative="1" as="geometry">
            <mxPoint x="1240" y="920" as="sourcePoint" />
            <mxPoint x="1239.6699999999998" y="160" as="targetPoint" />
          </mxGeometry>
        </mxCell>
        <mxCell id="9hvRfSDIdng7qgmBZlXO-146" value="" style="endArrow=none;html=1;rounded=0;entryX=0;entryY=1;entryDx=0;entryDy=0;" parent="1" edge="1">
          <mxGeometry width="50" height="50" relative="1" as="geometry">
            <mxPoint x="1200" y="920" as="sourcePoint" />
            <mxPoint x="1199.1699999999998" y="160" as="targetPoint" />
          </mxGeometry>
        </mxCell>
        <mxCell id="9hvRfSDIdng7qgmBZlXO-147" value="" style="endArrow=none;html=1;rounded=0;entryX=0;entryY=1;entryDx=0;entryDy=0;" parent="1" edge="1">
          <mxGeometry width="50" height="50" relative="1" as="geometry">
            <mxPoint x="1160" y="920" as="sourcePoint" />
            <mxPoint x="1159.1699999999998" y="160" as="targetPoint" />
          </mxGeometry>
        </mxCell>
        <mxCell id="9hvRfSDIdng7qgmBZlXO-148" value="" style="endArrow=none;html=1;rounded=0;entryX=0;entryY=1;entryDx=0;entryDy=0;" parent="1" edge="1">
          <mxGeometry width="50" height="50" relative="1" as="geometry">
            <mxPoint x="1120" y="920" as="sourcePoint" />
            <mxPoint x="1120" y="160" as="targetPoint" />
          </mxGeometry>
        </mxCell>
        <mxCell id="9hvRfSDIdng7qgmBZlXO-149" value="" style="endArrow=none;html=1;rounded=0;entryX=0;entryY=1;entryDx=0;entryDy=0;" parent="1" edge="1">
          <mxGeometry width="50" height="50" relative="1" as="geometry">
            <mxPoint x="1079" y="920" as="sourcePoint" />
            <mxPoint x="1079.1699999999998" y="160" as="targetPoint" />
          </mxGeometry>
        </mxCell>
        <mxCell id="9hvRfSDIdng7qgmBZlXO-150" value="" style="endArrow=none;html=1;rounded=0;entryX=0;entryY=0;entryDx=0;entryDy=0;strokeWidth=3;" parent="1" target="9hvRfSDIdng7qgmBZlXO-18" edge="1">
          <mxGeometry width="50" height="50" relative="1" as="geometry">
            <mxPoint x="1280" y="400" as="sourcePoint" />
            <mxPoint x="1280" y="160" as="targetPoint" />
          </mxGeometry>
        </mxCell>
        <mxCell id="9hvRfSDIdng7qgmBZlXO-151" value="&lt;b&gt;Week 8&lt;/b&gt;&lt;div&gt;&lt;b&gt;11.11 - 17.11&lt;/b&gt;&lt;/div&gt;" style="rounded=0;whiteSpace=wrap;html=1;strokeWidth=3;" parent="1" vertex="1">
          <mxGeometry x="2119" y="80" width="280" height="40" as="geometry" />
        </mxCell>
        <mxCell id="9hvRfSDIdng7qgmBZlXO-152" value="Mo" style="rounded=0;whiteSpace=wrap;html=1;" parent="1" vertex="1">
          <mxGeometry x="2120" y="121" width="40" height="40" as="geometry" />
        </mxCell>
        <mxCell id="9hvRfSDIdng7qgmBZlXO-153" value="Tu" style="rounded=0;whiteSpace=wrap;html=1;" parent="1" vertex="1">
          <mxGeometry x="2159" y="121" width="40" height="40" as="geometry" />
        </mxCell>
        <mxCell id="9hvRfSDIdng7qgmBZlXO-154" value="Th" style="rounded=0;whiteSpace=wrap;html=1;" parent="1" vertex="1">
          <mxGeometry x="2239" y="121" width="40" height="40" as="geometry" />
        </mxCell>
        <mxCell id="9hvRfSDIdng7qgmBZlXO-155" value="Fr" style="rounded=0;whiteSpace=wrap;html=1;" parent="1" vertex="1">
          <mxGeometry x="2279" y="121" width="40" height="40" as="geometry" />
        </mxCell>
        <mxCell id="9hvRfSDIdng7qgmBZlXO-156" value="Sa" style="rounded=0;whiteSpace=wrap;html=1;" parent="1" vertex="1">
          <mxGeometry x="2319" y="121" width="40" height="40" as="geometry" />
        </mxCell>
        <mxCell id="9hvRfSDIdng7qgmBZlXO-157" value="Su" style="rounded=0;whiteSpace=wrap;html=1;" parent="1" vertex="1">
          <mxGeometry x="2359" y="121" width="40" height="40" as="geometry" />
        </mxCell>
        <mxCell id="9hvRfSDIdng7qgmBZlXO-158" value="We" style="rounded=0;whiteSpace=wrap;html=1;" parent="1" vertex="1">
          <mxGeometry x="2199" y="121" width="40" height="40" as="geometry" />
        </mxCell>
        <mxCell id="9hvRfSDIdng7qgmBZlXO-159" value="" style="endArrow=none;html=1;rounded=0;entryX=1;entryY=0;entryDx=0;entryDy=0;strokeWidth=3;" parent="1" edge="1">
          <mxGeometry width="50" height="50" relative="1" as="geometry">
            <mxPoint x="2399" y="920" as="sourcePoint" />
            <mxPoint x="2399" y="80" as="targetPoint" />
          </mxGeometry>
        </mxCell>
        <mxCell id="9hvRfSDIdng7qgmBZlXO-160" value="" style="endArrow=none;html=1;rounded=0;entryX=0;entryY=1;entryDx=0;entryDy=0;" parent="1" edge="1">
          <mxGeometry width="50" height="50" relative="1" as="geometry">
            <mxPoint x="2199" y="920" as="sourcePoint" />
            <mxPoint x="2199" y="161" as="targetPoint" />
          </mxGeometry>
        </mxCell>
        <mxCell id="9hvRfSDIdng7qgmBZlXO-161" value="" style="endArrow=none;html=1;rounded=0;entryX=0;entryY=1;entryDx=0;entryDy=0;" parent="1" edge="1">
          <mxGeometry width="50" height="50" relative="1" as="geometry">
            <mxPoint x="2239" y="920" as="sourcePoint" />
            <mxPoint x="2239" y="161" as="targetPoint" />
          </mxGeometry>
        </mxCell>
        <mxCell id="9hvRfSDIdng7qgmBZlXO-162" value="" style="endArrow=none;html=1;rounded=0;entryX=0;entryY=1;entryDx=0;entryDy=0;" parent="1" edge="1">
          <mxGeometry width="50" height="50" relative="1" as="geometry">
            <mxPoint x="2278" y="920" as="sourcePoint" />
            <mxPoint x="2278.17" y="161" as="targetPoint" />
          </mxGeometry>
        </mxCell>
        <mxCell id="9hvRfSDIdng7qgmBZlXO-163" value="" style="endArrow=none;html=1;rounded=0;entryX=0;entryY=1;entryDx=0;entryDy=0;" parent="1" edge="1">
          <mxGeometry width="50" height="50" relative="1" as="geometry">
            <mxPoint x="2318" y="920" as="sourcePoint" />
            <mxPoint x="2318.17" y="161" as="targetPoint" />
          </mxGeometry>
        </mxCell>
        <mxCell id="9hvRfSDIdng7qgmBZlXO-164" value="" style="endArrow=none;html=1;rounded=0;entryX=0;entryY=1;entryDx=0;entryDy=0;" parent="1" edge="1">
          <mxGeometry width="50" height="50" relative="1" as="geometry">
            <mxPoint x="2358" y="920" as="sourcePoint" />
            <mxPoint x="2358.17" y="160" as="targetPoint" />
          </mxGeometry>
        </mxCell>
        <mxCell id="9hvRfSDIdng7qgmBZlXO-165" value="" style="endArrow=none;html=1;rounded=0;entryX=0;entryY=1;entryDx=0;entryDy=0;" parent="1" edge="1">
          <mxGeometry width="50" height="50" relative="1" as="geometry">
            <mxPoint x="2159" y="920" as="sourcePoint" />
            <mxPoint x="2159" y="161" as="targetPoint" />
          </mxGeometry>
        </mxCell>
        <mxCell id="dcgGMV82aTt8_ZV59tZ3-1" value="&lt;b&gt;Week 8&lt;/b&gt;&lt;div&gt;&lt;b&gt;18.11 - 24.11&lt;/b&gt;&lt;/div&gt;" style="rounded=0;whiteSpace=wrap;html=1;strokeWidth=3;" vertex="1" parent="1">
          <mxGeometry x="2399" y="80" width="280" height="40" as="geometry" />
        </mxCell>
        <mxCell id="dcgGMV82aTt8_ZV59tZ3-2" value="Mo" style="rounded=0;whiteSpace=wrap;html=1;" vertex="1" parent="1">
          <mxGeometry x="2399" y="120" width="40" height="40" as="geometry" />
        </mxCell>
        <mxCell id="dcgGMV82aTt8_ZV59tZ3-3" value="Tu" style="rounded=0;whiteSpace=wrap;html=1;" vertex="1" parent="1">
          <mxGeometry x="2438" y="120" width="40" height="40" as="geometry" />
        </mxCell>
        <mxCell id="dcgGMV82aTt8_ZV59tZ3-4" value="Th" style="rounded=0;whiteSpace=wrap;html=1;" vertex="1" parent="1">
          <mxGeometry x="2518" y="120" width="40" height="40" as="geometry" />
        </mxCell>
        <mxCell id="dcgGMV82aTt8_ZV59tZ3-5" value="Fr" style="rounded=0;whiteSpace=wrap;html=1;" vertex="1" parent="1">
          <mxGeometry x="2558" y="120" width="40" height="40" as="geometry" />
        </mxCell>
        <mxCell id="dcgGMV82aTt8_ZV59tZ3-6" value="Sa" style="rounded=0;whiteSpace=wrap;html=1;" vertex="1" parent="1">
          <mxGeometry x="2598" y="120" width="40" height="40" as="geometry" />
        </mxCell>
        <mxCell id="dcgGMV82aTt8_ZV59tZ3-7" value="Su" style="rounded=0;whiteSpace=wrap;html=1;" vertex="1" parent="1">
          <mxGeometry x="2638" y="120" width="40" height="40" as="geometry" />
        </mxCell>
        <mxCell id="dcgGMV82aTt8_ZV59tZ3-8" value="We" style="rounded=0;whiteSpace=wrap;html=1;" vertex="1" parent="1">
          <mxGeometry x="2478" y="120" width="40" height="40" as="geometry" />
        </mxCell>
        <mxCell id="dcgGMV82aTt8_ZV59tZ3-10" value="" style="endArrow=none;html=1;rounded=0;entryX=1;entryY=0;entryDx=0;entryDy=0;strokeWidth=3;" edge="1" parent="1">
          <mxGeometry width="50" height="50" relative="1" as="geometry">
            <mxPoint x="2678" y="920" as="sourcePoint" />
            <mxPoint x="2678" y="80" as="targetPoint" />
          </mxGeometry>
        </mxCell>
        <mxCell id="dcgGMV82aTt8_ZV59tZ3-11" value="" style="endArrow=none;html=1;rounded=0;entryX=0;entryY=1;entryDx=0;entryDy=0;" edge="1" parent="1">
          <mxGeometry width="50" height="50" relative="1" as="geometry">
            <mxPoint x="2479" y="920" as="sourcePoint" />
            <mxPoint x="2479.18" y="160" as="targetPoint" />
          </mxGeometry>
        </mxCell>
        <mxCell id="dcgGMV82aTt8_ZV59tZ3-12" value="" style="endArrow=none;html=1;rounded=0;entryX=0;entryY=1;entryDx=0;entryDy=0;" edge="1" parent="1">
          <mxGeometry width="50" height="50" relative="1" as="geometry">
            <mxPoint x="2519" y="920" as="sourcePoint" />
            <mxPoint x="2519.18" y="159" as="targetPoint" />
          </mxGeometry>
        </mxCell>
        <mxCell id="dcgGMV82aTt8_ZV59tZ3-13" value="" style="endArrow=none;html=1;rounded=0;entryX=0;entryY=1;entryDx=0;entryDy=0;" edge="1" parent="1">
          <mxGeometry width="50" height="50" relative="1" as="geometry">
            <mxPoint x="2558" y="920" as="sourcePoint" />
            <mxPoint x="2558.35" y="160" as="targetPoint" />
          </mxGeometry>
        </mxCell>
        <mxCell id="dcgGMV82aTt8_ZV59tZ3-14" value="" style="endArrow=none;html=1;rounded=0;entryX=0;entryY=1;entryDx=0;entryDy=0;" edge="1" parent="1">
          <mxGeometry width="50" height="50" relative="1" as="geometry">
            <mxPoint x="2600" y="920" as="sourcePoint" />
            <mxPoint x="2598.35" y="160" as="targetPoint" />
          </mxGeometry>
        </mxCell>
        <mxCell id="dcgGMV82aTt8_ZV59tZ3-15" value="" style="endArrow=none;html=1;rounded=0;entryX=0;entryY=1;entryDx=0;entryDy=0;" edge="1" parent="1">
          <mxGeometry width="50" height="50" relative="1" as="geometry">
            <mxPoint x="2638" y="920" as="sourcePoint" />
            <mxPoint x="2638.35" y="159" as="targetPoint" />
          </mxGeometry>
        </mxCell>
        <mxCell id="dcgGMV82aTt8_ZV59tZ3-16" value="" style="endArrow=none;html=1;rounded=0;entryX=0;entryY=1;entryDx=0;entryDy=0;" edge="1" parent="1">
          <mxGeometry width="50" height="50" relative="1" as="geometry">
            <mxPoint x="2440" y="920" as="sourcePoint" />
            <mxPoint x="2439.18" y="160" as="targetPoint" />
          </mxGeometry>
        </mxCell>
        <mxCell id="dcgGMV82aTt8_ZV59tZ3-17" value="&lt;b&gt;&lt;u&gt;Design Phase&lt;/u&gt;&lt;/b&gt;" style="rounded=0;whiteSpace=wrap;html=1;strokeWidth=3;" vertex="1" parent="1">
          <mxGeometry x="40" y="280" width="120" height="40" as="geometry" />
        </mxCell>
        <mxCell id="dcgGMV82aTt8_ZV59tZ3-18" value="&lt;b&gt;&lt;u&gt;Development Phase&lt;/u&gt;&lt;/b&gt;" style="rounded=0;whiteSpace=wrap;html=1;strokeWidth=3;" vertex="1" parent="1">
          <mxGeometry x="40" y="360" width="120" height="40" as="geometry" />
        </mxCell>
        <mxCell id="dcgGMV82aTt8_ZV59tZ3-19" value="&lt;b&gt;&lt;u&gt;Testing and Debugging Phase&lt;/u&gt;&lt;/b&gt;" style="rounded=0;whiteSpace=wrap;html=1;strokeWidth=3;" vertex="1" parent="1">
          <mxGeometry x="40" y="640" width="120" height="40" as="geometry" />
        </mxCell>
        <mxCell id="dcgGMV82aTt8_ZV59tZ3-20" value="&lt;b&gt;&lt;u&gt;Deployment Phase&lt;/u&gt;&lt;/b&gt;" style="rounded=0;whiteSpace=wrap;html=1;strokeWidth=3;" vertex="1" parent="1">
          <mxGeometry x="40" y="760" width="120" height="40" as="geometry" />
        </mxCell>
        <mxCell id="dcgGMV82aTt8_ZV59tZ3-21" value="&lt;b&gt;&lt;u&gt;Documentation&amp;nbsp;&lt;/u&gt;&lt;/b&gt;" style="rounded=0;whiteSpace=wrap;html=1;strokeWidth=3;" vertex="1" parent="1">
          <mxGeometry x="40" y="840" width="120" height="40" as="geometry" />
        </mxCell>
        <mxCell id="dcgGMV82aTt8_ZV59tZ3-22" value="&lt;font style=&quot;font-size: 8px;&quot;&gt;Design User Interface (UI)&lt;/font&gt;" style="rounded=0;whiteSpace=wrap;html=1;strokeWidth=3;" vertex="1" parent="1">
          <mxGeometry x="40" y="320" width="120" height="40" as="geometry" />
        </mxCell>
        <mxCell id="dcgGMV82aTt8_ZV59tZ3-24" value="&lt;font style=&quot;font-size: 8px;&quot;&gt;Test the Form and VCF Generation&lt;/font&gt;" style="rounded=0;whiteSpace=wrap;html=1;strokeWidth=3;" vertex="1" parent="1">
          <mxGeometry x="40" y="680" width="120" height="40" as="geometry" />
        </mxCell>
        <mxCell id="dcgGMV82aTt8_ZV59tZ3-25" value="&lt;font style=&quot;font-size: 8px;&quot;&gt;Fix Bugs&lt;/font&gt;" style="rounded=0;whiteSpace=wrap;html=1;strokeWidth=3;" vertex="1" parent="1">
          <mxGeometry x="40" y="720" width="120" height="40" as="geometry" />
        </mxCell>
        <mxCell id="dcgGMV82aTt8_ZV59tZ3-26" value="&lt;font style=&quot;font-size: 8px;&quot;&gt;Develop Login and Sign Up Form&lt;/font&gt;" style="rounded=0;whiteSpace=wrap;html=1;strokeWidth=3;" vertex="1" parent="1">
          <mxGeometry x="40" y="480" width="120" height="40" as="geometry" />
        </mxCell>
        <mxCell id="dcgGMV82aTt8_ZV59tZ3-27" value="&lt;div&gt;&lt;span style=&quot;color: rgb(0, 29, 53); font-family: &amp;quot;Google Sans&amp;quot;, &amp;quot;Helvetica Neue&amp;quot;, Arial, sans-serif-medium, sans-serif; text-align: left; text-wrap: nowrap; background-color: rgb(255, 255, 255); font-size: 8px;&quot;&gt;Set Up Development Environment&lt;/span&gt;&lt;/div&gt;" style="rounded=0;whiteSpace=wrap;html=1;strokeWidth=3;" vertex="1" parent="1">
          <mxGeometry x="40" y="400" width="120" height="40" as="geometry" />
        </mxCell>
        <mxCell id="dcgGMV82aTt8_ZV59tZ3-28" value="&lt;font style=&quot;font-size: 8px;&quot;&gt;Create Database&lt;/font&gt;" style="rounded=0;whiteSpace=wrap;html=1;strokeWidth=3;" vertex="1" parent="1">
          <mxGeometry x="40" y="520" width="120" height="40" as="geometry" />
        </mxCell>
        <mxCell id="dcgGMV82aTt8_ZV59tZ3-29" value="&lt;font style=&quot;font-size: 8px;&quot;&gt;Integrate Download Functionality&lt;/font&gt;" style="rounded=0;whiteSpace=wrap;html=1;strokeWidth=3;" vertex="1" parent="1">
          <mxGeometry x="40" y="600" width="120" height="40" as="geometry" />
        </mxCell>
        <mxCell id="dcgGMV82aTt8_ZV59tZ3-30" value="&lt;font style=&quot;font-size: 8px;&quot;&gt;Develop the Contact Form&lt;/font&gt;" style="rounded=0;whiteSpace=wrap;html=1;strokeWidth=3;" vertex="1" parent="1">
          <mxGeometry x="40" y="440" width="120" height="40" as="geometry" />
        </mxCell>
        <mxCell id="dcgGMV82aTt8_ZV59tZ3-31" value="&lt;font style=&quot;font-size: 8px;&quot;&gt;Implementation the Logic&lt;/font&gt;" style="rounded=0;whiteSpace=wrap;html=1;strokeWidth=3;" vertex="1" parent="1">
          <mxGeometry x="40" y="560" width="120" height="40" as="geometry" />
        </mxCell>
        <mxCell id="dcgGMV82aTt8_ZV59tZ3-35" value="&lt;font style=&quot;font-size: 8px;&quot;&gt;Writing a Documentation&lt;/font&gt;" style="rounded=0;whiteSpace=wrap;html=1;strokeWidth=3;" vertex="1" parent="1">
          <mxGeometry x="40" y="880" width="120" height="40" as="geometry" />
        </mxCell>
        <mxCell id="dcgGMV82aTt8_ZV59tZ3-36" value="&lt;font style=&quot;font-size: 8px;&quot;&gt;Deploy the Website&lt;/font&gt;" style="rounded=0;whiteSpace=wrap;html=1;strokeWidth=3;" vertex="1" parent="1">
          <mxGeometry x="40" y="800" width="120" height="40" as="geometry" />
        </mxCell>
        <mxCell id="dcgGMV82aTt8_ZV59tZ3-37" value="" style="endArrow=none;html=1;rounded=0;entryX=0;entryY=0;entryDx=0;entryDy=0;strokeWidth=3;" edge="1" parent="1" target="9hvRfSDIdng7qgmBZlXO-18">
          <mxGeometry width="50" height="50" relative="1" as="geometry">
            <mxPoint x="1280" y="920" as="sourcePoint" />
            <mxPoint x="1280" y="80" as="targetPoint" />
          </mxGeometry>
        </mxCell>
        <mxCell id="dcgGMV82aTt8_ZV59tZ3-38" value="" style="endArrow=none;html=1;rounded=0;entryX=0;entryY=0;entryDx=0;entryDy=0;strokeWidth=3;" edge="1" parent="1" target="9hvRfSDIdng7qgmBZlXO-14">
          <mxGeometry width="50" height="50" relative="1" as="geometry">
            <mxPoint x="440" y="920" as="sourcePoint" />
            <mxPoint x="440" y="80" as="targetPoint" />
          </mxGeometry>
        </mxCell>
        <mxCell id="dcgGMV82aTt8_ZV59tZ3-39" value="" style="endArrow=none;html=1;rounded=0;" edge="1" parent="1">
          <mxGeometry width="50" height="50" relative="1" as="geometry">
            <mxPoint x="160" y="240" as="sourcePoint" />
            <mxPoint x="2680" y="240" as="targetPoint" />
          </mxGeometry>
        </mxCell>
        <mxCell id="dcgGMV82aTt8_ZV59tZ3-41" value="" style="endArrow=none;html=1;rounded=0;" edge="1" parent="1">
          <mxGeometry width="50" height="50" relative="1" as="geometry">
            <mxPoint x="160" y="200" as="sourcePoint" />
            <mxPoint x="2680" y="200" as="targetPoint" />
          </mxGeometry>
        </mxCell>
        <mxCell id="dcgGMV82aTt8_ZV59tZ3-42" value="" style="endArrow=none;html=1;rounded=0;" edge="1" parent="1">
          <mxGeometry width="50" height="50" relative="1" as="geometry">
            <mxPoint x="158" y="280" as="sourcePoint" />
            <mxPoint x="2678" y="280.8" as="targetPoint" />
          </mxGeometry>
        </mxCell>
        <mxCell id="dcgGMV82aTt8_ZV59tZ3-43" value="" style="endArrow=none;html=1;rounded=0;" edge="1" parent="1">
          <mxGeometry width="50" height="50" relative="1" as="geometry">
            <mxPoint x="159" y="360" as="sourcePoint" />
            <mxPoint x="2680" y="360" as="targetPoint" />
          </mxGeometry>
        </mxCell>
        <mxCell id="dcgGMV82aTt8_ZV59tZ3-44" value="" style="endArrow=none;html=1;rounded=0;" edge="1" parent="1">
          <mxGeometry width="50" height="50" relative="1" as="geometry">
            <mxPoint x="150" y="320" as="sourcePoint" />
            <mxPoint x="2680" y="320" as="targetPoint" />
          </mxGeometry>
        </mxCell>
        <mxCell id="dcgGMV82aTt8_ZV59tZ3-45" value="" style="endArrow=none;html=1;rounded=0;" edge="1" parent="1">
          <mxGeometry width="50" height="50" relative="1" as="geometry">
            <mxPoint x="160" y="400" as="sourcePoint" />
            <mxPoint x="2680" y="400" as="targetPoint" />
          </mxGeometry>
        </mxCell>
        <mxCell id="dcgGMV82aTt8_ZV59tZ3-46" value="" style="endArrow=none;html=1;rounded=0;" edge="1" parent="1">
          <mxGeometry width="50" height="50" relative="1" as="geometry">
            <mxPoint x="160" y="440" as="sourcePoint" />
            <mxPoint x="2680" y="440" as="targetPoint" />
          </mxGeometry>
        </mxCell>
        <mxCell id="dcgGMV82aTt8_ZV59tZ3-47" value="" style="endArrow=none;html=1;rounded=0;" edge="1" parent="1">
          <mxGeometry width="50" height="50" relative="1" as="geometry">
            <mxPoint x="159" y="480" as="sourcePoint" />
            <mxPoint x="2680" y="480" as="targetPoint" />
          </mxGeometry>
        </mxCell>
        <mxCell id="dcgGMV82aTt8_ZV59tZ3-48" value="" style="endArrow=none;html=1;rounded=0;" edge="1" parent="1">
          <mxGeometry width="50" height="50" relative="1" as="geometry">
            <mxPoint x="150" y="600" as="sourcePoint" />
            <mxPoint x="2680" y="600" as="targetPoint" />
          </mxGeometry>
        </mxCell>
        <mxCell id="dcgGMV82aTt8_ZV59tZ3-49" value="" style="endArrow=none;html=1;rounded=0;" edge="1" parent="1">
          <mxGeometry width="50" height="50" relative="1" as="geometry">
            <mxPoint x="160" y="560" as="sourcePoint" />
            <mxPoint x="2680" y="560" as="targetPoint" />
          </mxGeometry>
        </mxCell>
        <mxCell id="dcgGMV82aTt8_ZV59tZ3-50" value="" style="endArrow=none;html=1;rounded=0;" edge="1" parent="1">
          <mxGeometry width="50" height="50" relative="1" as="geometry">
            <mxPoint x="159" y="680" as="sourcePoint" />
            <mxPoint x="2680" y="680" as="targetPoint" />
          </mxGeometry>
        </mxCell>
        <mxCell id="dcgGMV82aTt8_ZV59tZ3-51" value="" style="endArrow=none;html=1;rounded=0;" edge="1" parent="1">
          <mxGeometry width="50" height="50" relative="1" as="geometry">
            <mxPoint x="160" y="640" as="sourcePoint" />
            <mxPoint x="2680" y="640" as="targetPoint" />
          </mxGeometry>
        </mxCell>
        <mxCell id="dcgGMV82aTt8_ZV59tZ3-52" value="" style="endArrow=none;html=1;rounded=0;" edge="1" parent="1">
          <mxGeometry width="50" height="50" relative="1" as="geometry">
            <mxPoint x="159" y="720" as="sourcePoint" />
            <mxPoint x="2680" y="720" as="targetPoint" />
          </mxGeometry>
        </mxCell>
        <mxCell id="dcgGMV82aTt8_ZV59tZ3-53" value="" style="endArrow=none;html=1;rounded=0;" edge="1" parent="1">
          <mxGeometry width="50" height="50" relative="1" as="geometry">
            <mxPoint x="150" y="760" as="sourcePoint" />
            <mxPoint x="2680" y="760" as="targetPoint" />
          </mxGeometry>
        </mxCell>
        <mxCell id="dcgGMV82aTt8_ZV59tZ3-54" value="" style="endArrow=none;html=1;rounded=0;" edge="1" parent="1">
          <mxGeometry width="50" height="50" relative="1" as="geometry">
            <mxPoint x="159" y="800" as="sourcePoint" />
            <mxPoint x="2680" y="800" as="targetPoint" />
          </mxGeometry>
        </mxCell>
        <mxCell id="dcgGMV82aTt8_ZV59tZ3-55" value="" style="endArrow=none;html=1;rounded=0;" edge="1" parent="1">
          <mxGeometry width="50" height="50" relative="1" as="geometry">
            <mxPoint x="159" y="520" as="sourcePoint" />
            <mxPoint x="2680" y="520" as="targetPoint" />
          </mxGeometry>
        </mxCell>
        <mxCell id="dcgGMV82aTt8_ZV59tZ3-56" value="" style="endArrow=none;html=1;rounded=0;" edge="1" parent="1">
          <mxGeometry width="50" height="50" relative="1" as="geometry">
            <mxPoint x="159" y="880" as="sourcePoint" />
            <mxPoint x="2680" y="880" as="targetPoint" />
          </mxGeometry>
        </mxCell>
        <mxCell id="dcgGMV82aTt8_ZV59tZ3-57" value="" style="endArrow=none;html=1;rounded=0;" edge="1" parent="1">
          <mxGeometry width="50" height="50" relative="1" as="geometry">
            <mxPoint x="159" y="840" as="sourcePoint" />
            <mxPoint x="2680" y="840" as="targetPoint" />
          </mxGeometry>
        </mxCell>
        <mxCell id="dcgGMV82aTt8_ZV59tZ3-58" value="" style="endArrow=none;html=1;rounded=0;strokeWidth=3;" edge="1" parent="1">
          <mxGeometry width="50" height="50" relative="1" as="geometry">
            <mxPoint x="160" y="920" as="sourcePoint" />
            <mxPoint x="2680" y="920" as="targetPoint" />
          </mxGeometry>
        </mxCell>
        <mxCell id="dcgGMV82aTt8_ZV59tZ3-61" value="End Time&lt;div&gt;28.11&lt;/div&gt;" style="whiteSpace=wrap;html=1;aspect=fixed;" vertex="1" parent="1">
          <mxGeometry x="2830" y="110" width="80" height="80" as="geometry" />
        </mxCell>
        <mxCell id="dcgGMV82aTt8_ZV59tZ3-62" value="Start Time&lt;div&gt;23.09&lt;/div&gt;" style="whiteSpace=wrap;html=1;aspect=fixed;" vertex="1" parent="1">
          <mxGeometry x="2830" y="220" width="80" height="80" as="geometry" />
        </mxCell>
        <mxCell id="dcgGMV82aTt8_ZV59tZ3-64" value="" style="endArrow=none;html=1;rounded=0;strokeWidth=10;" edge="1" parent="1">
          <mxGeometry width="50" height="50" relative="1" as="geometry">
            <mxPoint x="220" y="219.26" as="sourcePoint" />
            <mxPoint x="480" y="220" as="targetPoint" />
          </mxGeometry>
        </mxCell>
        <mxCell id="dcgGMV82aTt8_ZV59tZ3-65" value="" style="endArrow=none;html=1;rounded=0;strokeWidth=10;endSize=6;" edge="1" parent="1">
          <mxGeometry width="50" height="50" relative="1" as="geometry">
            <mxPoint x="220" y="259.63" as="sourcePoint" />
            <mxPoint x="480" y="260" as="targetPoint" />
          </mxGeometry>
        </mxCell>
        <mxCell id="dcgGMV82aTt8_ZV59tZ3-66" value="" style="endArrow=none;html=1;rounded=0;" edge="1" parent="1">
          <mxGeometry width="50" height="50" relative="1" as="geometry">
            <mxPoint x="520" y="339.63" as="sourcePoint" />
            <mxPoint x="560" y="340" as="targetPoint" />
          </mxGeometry>
        </mxCell>
        <mxCell id="dcgGMV82aTt8_ZV59tZ3-67" value="" style="endArrow=none;html=1;rounded=0;" edge="1" parent="1">
          <mxGeometry width="50" height="50" relative="1" as="geometry">
            <mxPoint x="520" y="419.63" as="sourcePoint" />
            <mxPoint x="560" y="420" as="targetPoint" />
          </mxGeometry>
        </mxCell>
      </root>
    </mxGraphModel>
  </diagram>
</mxfile>
